# xmcd CD database file
#
# Track frame offsets:
#	150
#	14398
#	24737
#	37089
#	52273
#	62946
#	71628
#	85313
#	108771
#	121517
#	133226
#	146287
#	157952
#	172245
#	184220
#	193808
#	207086
#	219047
#	228738
#	239630
#	250209
#	264194
#	273901
#	284143
#	296172
#	306914
#	316801
#	327108
#	336433
#
# Disc length: 4673 seconds
#
# Revision: 0
# Processed by: cddbd v1.5.2PL0 Copyright (c) Steve Scherf et al.
# Submitted via: CDex 1.51
#
DISCID=c6123f1d
DTITLE=Milt Buckner - Please Mr Organ Player and Send Me Softly
DYEAR=1957
DGENRE=Jazz
TTITLE0=Don't Let The Sun Catch You Crying ( Please Mr Organ Player - 1960 )
TTITLE1=You're Looking Good
TTITLE2=Gee Baby, Ain't It Good To You
TTITLE3=Blue Prelude
TTITLE4=Long Gone
TTITLE5=Please Mr Organ Player
TTITLE6=Sermonette
TTITLE7='Round Midnight
TTITLE8=Buck'n The Blues
TTITLE9=Cry Me A River
TTITLE10=Someone Else's Love ( Send Me Softly - 1957 )
TTITLE11=All Or Nothing At All
TTITLE12=You're My Girl
TTITLE13=Idle Gossip
TTITLE14=Turquoise
TTITLE15=When Sunny Gets Blue
TTITLE16=Easy Come, Easy Go Lover
TTITLE17=Irresistible You
TTITLE18=Our Engagement Day
TTITLE19=Let Me Love You
TTITLE20=Lullaby Of The Leaves
TTITLE21=You Are My Love
TTITLE22=Night Mist ( single bonus tracks 1956,1957 )
TTITLE23=Good Time Express
TTITLE24=Dinner Date
TTITLE25=Second Section
TTITLE26=Hey Now, Zorina!
TTITLE27=Deep Purple
TTITLE28=Count's Basement
EXTD=YEAR: 1957
EXTT0=
EXTT1=
EXTT2=
EXTT3=
EXTT4=
EXTT5=
EXTT6=
EXTT7=
EXTT8=
EXTT9=
EXTT10=
EXTT11=
EXTT12=
EXTT13=
EXTT14=
EXTT15=
EXTT16=
EXTT17=
EXTT18=
EXTT19=
EXTT20=
EXTT21=
EXTT22=
EXTT23=
EXTT24=
EXTT25=
EXTT26=
EXTT27=
EXTT28=
PLAYORDER=
